<svg width="347" height="193" viewBox="0 0 347 193" fill="none" xmlns="http://www.w3.org/2000/svg">
<path d="M1.379 8.424V5.557H19.984V8.424L14.616 9.034C14.5753 11.5553 14.5347 14.1173 14.494 16.72C14.494 19.282 14.494 21.8643 14.494 24.467V28.188C14.494 30.3433 14.494 32.6613 14.494 35.142C14.5347 37.6227 14.5753 40.144 14.616 42.706H26.938L28.646 34.288H32.916L32.306 46H1.379V43.133L6.503 42.584C6.58433 40.022 6.625 37.5007 6.625 35.02C6.625 32.4987 6.625 30.079 6.625 27.761V24.467C6.625 21.8237 6.625 19.221 6.625 16.659C6.625 14.0563 6.58433 11.4943 6.503 8.973L1.379 8.424ZM36.8729 46V43.499L40.8989 42.706C40.9396 41.2013 40.9599 39.5747 40.9599 37.826C40.9599 36.0367 40.9599 34.4913 40.9599 33.19V30.323C40.9599 28.6557 40.9396 27.273 40.8989 26.175C40.8989 25.0363 40.8582 23.857 40.7769 22.637L36.4459 22.088V19.77L47.4259 15.927L48.4019 16.537L48.2189 25.138V33.19C48.2189 34.4913 48.2189 36.0367 48.2189 37.826C48.2189 39.5747 48.2392 41.2217 48.2799 42.767L52.0009 43.499V46H36.8729ZM44.5589 10.254C43.2576 10.254 42.1596 9.84733 41.2649 9.034C40.3702 8.22066 39.9229 7.18366 39.9229 5.923C39.9229 4.62167 40.3702 3.56433 41.2649 2.751C42.1596 1.93766 43.2576 1.531 44.5589 1.531C45.8602 1.531 46.9379 1.93766 47.7919 2.751C48.6866 3.56433 49.1339 4.62167 49.1339 5.923C49.1339 7.18366 48.6866 8.22066 47.7919 9.034C46.9379 9.84733 45.8602 10.254 44.5589 10.254ZM55.639 46V43.499L59.726 42.706C59.7666 41.12 59.787 39.534 59.787 37.948C59.8276 36.362 59.848 34.776 59.848 33.19V20.502H55.334V17.33L60.031 16.72C60.3563 13.7107 60.8443 11.291 61.495 9.461C62.1863 7.59033 63.2436 5.94333 64.667 4.52C66.0496 3.13733 67.5543 2.16133 69.181 1.592C70.8483 0.981998 72.4546 0.676998 74 0.676998C75.586 0.676998 76.989 0.961665 78.209 1.531C79.4696 2.10033 80.2626 3.09667 80.588 4.52C80.5473 5.45533 80.161 6.24833 79.429 6.899C78.7376 7.54967 77.782 7.875 76.562 7.875C74.8133 7.875 73.1663 6.85833 71.621 4.825L70.523 3.727C70.401 3.80833 70.2586 3.93033 70.096 4.093C68.998 5.191 68.205 6.73633 67.717 8.729C67.229 10.7217 67.0256 13.4057 67.107 16.781H74.61V20.502H67.229V33.19C67.229 34.7353 67.229 36.301 67.229 37.887C67.2696 39.4323 67.3103 40.998 67.351 42.584L72.475 43.499V46H55.639ZM91.3669 18.855C90.3909 18.855 89.4149 19.1803 88.4389 19.831C87.5035 20.441 86.6902 21.4577 85.9989 22.881C85.3482 24.3043 84.9415 26.236 84.7789 28.676H93.1359C94.5999 28.676 95.5759 28.371 96.0639 27.761C96.5519 27.151 96.7959 26.297 96.7959 25.199C96.7959 23.3283 96.2672 21.8033 95.2099 20.624C94.1525 19.4447 92.8715 18.855 91.3669 18.855ZM91.3669 46.854C88.5202 46.854 86.0192 46.244 83.8639 45.024C81.7085 43.804 80.0209 42.0553 78.8009 39.778C77.5809 37.46 76.9709 34.715 76.9709 31.543C76.9709 28.2897 77.6622 25.504 79.0449 23.186C80.4682 20.8273 82.2982 19.038 84.5349 17.818C86.8122 16.5573 89.2319 15.927 91.7939 15.927C94.1932 15.927 96.2875 16.4353 98.0769 17.452C99.8662 18.4687 101.249 19.892 102.225 21.722C103.242 23.552 103.75 25.7073 103.75 28.188C103.75 29.4893 103.628 30.6077 103.384 31.543H84.7179C84.8805 35.0403 85.7955 37.6633 87.4629 39.412C89.1709 41.1607 91.3059 42.035 93.8679 42.035C95.6572 42.035 97.1619 41.6893 98.3819 40.998C99.6425 40.266 100.781 39.3307 101.798 38.192L103.567 39.778C102.388 42.0147 100.761 43.7633 98.6869 45.024C96.6535 46.244 94.2135 46.854 91.3669 46.854ZM121.701 46V43.499L125.727 42.706C125.768 41.2013 125.788 39.5747 125.788 37.826C125.788 36.0367 125.788 34.4913 125.788 33.19V30.323C125.788 28.6557 125.768 27.273 125.727 26.175C125.727 25.0363 125.686 23.857 125.605 22.637L121.274 22.088V19.77L132.254 15.927L133.23 16.537L133.047 25.138V33.19C133.047 34.4913 133.047 36.0367 133.047 37.826C133.047 39.5747 133.067 41.2217 133.108 42.767L136.829 43.499V46H121.701ZM129.387 10.254C128.086 10.254 126.988 9.84733 126.093 9.034C125.198 8.22066 124.751 7.18366 124.751 5.923C124.751 4.62167 125.198 3.56433 126.093 2.751C126.988 1.93766 128.086 1.531 129.387 1.531C130.688 1.531 131.766 1.93766 132.62 2.751C133.515 3.56433 133.962 4.62167 133.962 5.923C133.962 7.18366 133.515 8.22066 132.62 9.034C131.766 9.84733 130.688 10.254 129.387 10.254ZM150.776 46.854C148.905 46.854 147.177 46.6303 145.591 46.183C144.046 45.7763 142.5 45.146 140.955 44.292L140.894 37.216H144.981L146.079 42.889C147.543 43.499 149.129 43.804 150.837 43.804C152.911 43.804 154.456 43.438 155.473 42.706C156.49 41.974 156.998 40.9573 156.998 39.656C156.998 38.5173 156.591 37.6023 155.778 36.911C154.965 36.179 153.582 35.4877 151.63 34.837L148.58 33.8C146.303 33.068 144.493 31.9903 143.151 30.567C141.85 29.1437 141.199 27.3543 141.199 25.199C141.199 23.491 141.646 21.9457 142.541 20.563C143.436 19.1397 144.737 18.0213 146.445 17.208C148.194 16.354 150.308 15.927 152.789 15.927C154.538 15.927 156.124 16.1507 157.547 16.598C159.011 17.0047 160.455 17.6147 161.878 18.428L161.573 24.833H157.547L156.449 19.709C155.31 19.221 154.05 18.977 152.667 18.977C151.04 18.977 149.78 19.3227 148.885 20.014C147.99 20.7053 147.543 21.6407 147.543 22.82C147.543 23.918 147.909 24.8127 148.641 25.504C149.414 26.1547 150.837 26.8257 152.911 27.517L155.351 28.249C158.32 29.2657 160.434 30.5263 161.695 32.031C162.956 33.5357 163.586 35.3453 163.586 37.46C163.586 40.1847 162.468 42.4417 160.231 44.231C158.035 45.9797 154.883 46.854 150.776 46.854ZM180.969 46V43.499L184.934 42.767C184.975 41.2623 184.995 39.6357 184.995 37.887C185.036 36.0977 185.056 34.532 185.056 33.19V6.96L180.603 6.411V4.032L191.522 1.287L192.437 1.836L192.193 10.437V20.258C194.918 17.3707 197.948 15.927 201.282 15.927C203.478 15.927 205.471 16.5167 207.26 17.696C209.05 18.8753 210.453 20.6037 211.469 22.881C212.527 25.1177 213.055 27.8627 213.055 31.116C213.055 34.3287 212.466 37.1143 211.286 39.473C210.148 41.8317 208.623 43.6617 206.711 44.963C204.8 46.2237 202.665 46.854 200.306 46.854C198.72 46.854 197.236 46.549 195.853 45.939C194.511 45.329 193.251 44.3123 192.071 42.889L191.278 46.732L180.969 46ZM198.354 20.258C197.419 20.258 196.443 20.502 195.426 20.99C194.45 21.478 193.434 22.1693 192.376 23.064V39.961C194.247 41.7097 196.158 42.584 198.11 42.584C200.103 42.584 201.791 41.669 203.173 39.839C204.556 38.009 205.247 35.2233 205.247 31.482C205.247 27.7 204.597 24.894 203.295 23.064C202.035 21.1933 200.388 20.258 198.354 20.258ZM232.251 18.855C231.275 18.855 230.299 19.1803 229.323 19.831C228.387 20.441 227.574 21.4577 226.883 22.881C226.232 24.3043 225.825 26.236 225.663 28.676H234.02C235.484 28.676 236.46 28.371 236.948 27.761C237.436 27.151 237.68 26.297 237.68 25.199C237.68 23.3283 237.151 21.8033 236.094 20.624C235.036 19.4447 233.755 18.855 232.251 18.855ZM232.251 46.854C229.404 46.854 226.903 46.244 224.748 45.024C222.592 43.804 220.905 42.0553 219.685 39.778C218.465 37.46 217.855 34.715 217.855 31.543C217.855 28.2897 218.546 25.504 219.929 23.186C221.352 20.8273 223.182 19.038 225.419 17.818C227.696 16.5573 230.116 15.927 232.678 15.927C235.077 15.927 237.171 16.4353 238.961 17.452C240.75 18.4687 242.133 19.892 243.109 21.722C244.125 23.552 244.634 25.7073 244.634 28.188C244.634 29.4893 244.512 30.6077 244.268 31.543H225.602C225.764 35.0403 226.679 37.6633 228.347 39.412C230.055 41.1607 232.19 42.035 234.752 42.035C236.541 42.035 238.046 41.6893 239.266 40.998C240.526 40.266 241.665 39.3307 242.682 38.192L244.451 39.778C243.271 42.0147 241.645 43.7633 239.571 45.024C237.537 46.244 235.097 46.854 232.251 46.854ZM259.862 46.854C257.422 46.854 255.511 46.244 254.128 45.024C252.746 43.804 252.054 41.852 252.054 39.168C252.054 38.2327 252.054 37.3583 252.054 36.545C252.095 35.691 252.115 34.6743 252.115 33.495V20.502H247.601V17.33L252.542 16.72L254.86 8.363H259.801L259.557 16.781H266.877V20.502H259.496V38.497C259.496 40.0017 259.781 41.0997 260.35 41.791C260.96 42.4823 261.753 42.828 262.729 42.828C263.827 42.828 265.068 42.3197 266.45 41.303L267.914 42.828C267.142 44.0887 266.084 45.085 264.742 45.817C263.4 46.5083 261.774 46.854 259.862 46.854ZM280.831 46.854C278.391 46.854 276.48 46.244 275.097 45.024C273.714 43.804 273.023 41.852 273.023 39.168C273.023 38.2327 273.023 37.3583 273.023 36.545C273.064 35.691 273.084 34.6743 273.084 33.495V20.502H268.57V17.33L273.511 16.72L275.829 8.363H280.77L280.526 16.781H287.846V20.502H280.465V38.497C280.465 40.0017 280.75 41.0997 281.319 41.791C281.929 42.4823 282.722 42.828 283.698 42.828C284.796 42.828 286.036 42.3197 287.419 41.303L288.883 42.828C288.11 44.0887 287.053 45.085 285.711 45.817C284.369 46.5083 282.742 46.854 280.831 46.854ZM305.403 18.855C304.427 18.855 303.451 19.1803 302.475 19.831C301.54 20.441 300.726 21.4577 300.035 22.881C299.384 24.3043 298.978 26.236 298.815 28.676H307.172C308.636 28.676 309.612 28.371 310.1 27.761C310.588 27.151 310.832 26.297 310.832 25.199C310.832 23.3283 310.303 21.8033 309.246 20.624C308.189 19.4447 306.908 18.855 305.403 18.855ZM305.403 46.854C302.556 46.854 300.055 46.244 297.9 45.024C295.745 43.804 294.057 42.0553 292.837 39.778C291.617 37.46 291.007 34.715 291.007 31.543C291.007 28.2897 291.698 25.504 293.081 23.186C294.504 20.8273 296.334 19.038 298.571 17.818C300.848 16.5573 303.268 15.927 305.83 15.927C308.229 15.927 310.324 16.4353 312.113 17.452C313.902 18.4687 315.285 19.892 316.261 21.722C317.278 23.552 317.786 25.7073 317.786 28.188C317.786 29.4893 317.664 30.6077 317.42 31.543H298.754C298.917 35.0403 299.832 37.6633 301.499 39.412C303.207 41.1607 305.342 42.035 307.904 42.035C309.693 42.035 311.198 41.6893 312.418 40.998C313.679 40.266 314.817 39.3307 315.834 38.192L317.603 39.778C316.424 42.0147 314.797 43.7633 312.723 45.024C310.69 46.244 308.25 46.854 305.403 46.854ZM322.279 46V43.499L326.183 42.767C326.223 41.2217 326.244 39.5747 326.244 37.826C326.244 36.0367 326.244 34.4913 326.244 33.19V29.957C326.244 28.2897 326.223 26.968 326.183 25.992C326.183 24.9753 326.142 23.857 326.061 22.637L321.791 22.088V19.77L331.978 15.927L332.954 16.537L333.564 23.735C334.499 21.2137 335.76 19.282 337.346 17.94C338.932 16.598 340.518 15.927 342.104 15.927C343.202 15.927 344.198 16.2117 345.093 16.781C346.028 17.3503 346.638 18.1637 346.923 19.221C346.882 20.7257 346.516 21.905 345.825 22.759C345.133 23.5723 344.178 23.979 342.958 23.979C341.494 23.979 340.111 23.247 338.81 21.783L338.261 21.173C336.105 22.9623 334.56 25.4837 333.625 28.737V33.19C333.625 34.4507 333.625 35.9553 333.625 37.704C333.625 39.412 333.645 41.0183 333.686 42.523L338.688 43.499V46H322.279ZM0.952 119V116.499L4.978 115.706C5.01867 114.201 5.039 112.575 5.039 110.826C5.039 109.037 5.039 107.491 5.039 106.19V103.323C5.039 101.656 5.01867 100.273 4.978 99.175C4.978 98.0363 4.93733 96.857 4.856 95.637L0.525 95.088V92.77L11.505 88.927L12.481 89.537L12.298 98.138V106.19C12.298 107.491 12.298 109.037 12.298 110.826C12.298 112.575 12.3183 114.222 12.359 115.767L16.08 116.499V119H0.952ZM8.638 83.254C7.33667 83.254 6.23867 82.8473 5.344 82.034C4.44933 81.2207 4.002 80.1837 4.002 78.923C4.002 77.6217 4.44933 76.5643 5.344 75.751C6.23867 74.9377 7.33667 74.531 8.638 74.531C9.93933 74.531 11.017 74.9377 11.871 75.751C12.7657 76.5643 13.213 77.6217 13.213 78.923C13.213 80.1837 12.7657 81.2207 11.871 82.034C11.017 82.8473 9.93933 83.254 8.638 83.254ZM19.7791 119V116.499L23.7441 115.706C23.7847 114.201 23.8051 112.575 23.8051 110.826C23.8051 109.037 23.8051 107.491 23.8051 106.19V102.957C23.8051 101.29 23.7847 99.968 23.7441 98.992C23.7441 97.9753 23.7034 96.857 23.6221 95.637L19.3521 95.088V92.77L29.5391 88.927L30.5151 89.537L30.9421 94.234C34.0734 90.696 37.5301 88.927 41.3121 88.927C43.9554 88.927 45.9887 89.8013 47.4121 91.55C48.8761 93.2987 49.6081 96.064 49.6081 99.846V106.19C49.6081 107.573 49.6081 109.138 49.6081 110.887C49.6081 112.636 49.6284 114.262 49.6691 115.767L53.3901 116.499V119H38.3231V116.499L42.2271 115.706C42.2677 114.201 42.2881 112.595 42.2881 110.887C42.2881 109.138 42.2881 107.573 42.2881 106.19V100.395C42.2881 97.9957 41.9627 96.3487 41.3121 95.454C40.6614 94.5187 39.5634 94.051 38.0181 94.051C35.8627 94.051 33.5854 95.0473 31.1861 97.04V106.19C31.1861 107.532 31.1861 109.077 31.1861 110.826C31.1861 112.575 31.2064 114.222 31.2471 115.767L34.8461 116.499V119H19.7791ZM70.7727 119V116.499L74.6767 115.767C74.7174 114.222 74.7377 112.575 74.7377 110.826C74.7377 109.037 74.7377 107.491 74.7377 106.19V102.957C74.7377 101.29 74.7174 99.968 74.6767 98.992C74.6767 97.9753 74.636 96.857 74.5547 95.637L70.2847 95.088V92.77L80.4717 88.927L81.4477 89.537L82.0577 96.735C82.993 94.2137 84.2537 92.282 85.8397 90.94C87.4257 89.598 89.0117 88.927 90.5977 88.927C91.6957 88.927 92.692 89.2117 93.5867 89.781C94.522 90.3503 95.132 91.1637 95.4167 92.221C95.376 93.7257 95.01 94.905 94.3187 95.759C93.6274 96.5723 92.6717 96.979 91.4517 96.979C89.9877 96.979 88.605 96.247 87.3037 94.783L86.7547 94.173C84.5994 95.9623 83.054 98.4837 82.1187 101.737V106.19C82.1187 107.451 82.1187 108.955 82.1187 110.704C82.1187 112.412 82.139 114.018 82.1797 115.523L87.1817 116.499V119H70.7727ZM119.9 119.549L119.412 114.181C116.443 117.963 112.986 119.854 109.042 119.854C106.52 119.854 104.487 119.041 102.942 117.414C101.437 115.747 100.705 112.9 100.746 108.874L100.99 93.807L97.0246 92.953V90.574L107.7 89.293L108.432 89.964L108.127 98.504V108.63C108.127 110.907 108.472 112.514 109.164 113.449C109.896 114.344 110.933 114.791 112.275 114.791C113.413 114.791 114.572 114.466 115.752 113.815C116.972 113.164 118.131 112.331 119.229 111.314L119.412 93.807L115.569 92.953V90.696L126 89.293L126.793 89.964L126.61 98.504V115.706L130.331 116.499V119L119.9 119.549ZM134.035 119V116.499L138 115.706C138.041 114.201 138.061 112.575 138.061 110.826C138.061 109.037 138.061 107.491 138.061 106.19V102.957C138.061 101.29 138.041 99.968 138 98.992C138 97.9753 137.959 96.857 137.878 95.637L133.608 95.088V92.77L143.795 88.927L144.771 89.537L145.198 94.234C148.329 90.696 151.786 88.927 155.568 88.927C158.211 88.927 160.245 89.8013 161.668 91.55C163.132 93.2987 163.864 96.064 163.864 99.846V106.19C163.864 107.573 163.864 109.138 163.864 110.887C163.864 112.636 163.884 114.262 163.925 115.767L167.646 116.499V119H152.579V116.499L156.483 115.706C156.524 114.201 156.544 112.595 156.544 110.887C156.544 109.138 156.544 107.573 156.544 106.19V100.395C156.544 97.9957 156.219 96.3487 155.568 95.454C154.917 94.5187 153.819 94.051 152.274 94.051C150.119 94.051 147.841 95.0473 145.442 97.04V106.19C145.442 107.532 145.442 109.077 145.442 110.826C145.442 112.575 145.462 114.222 145.503 115.767L149.102 116.499V119H134.035ZM171.326 119V116.499L175.291 115.706C175.332 114.201 175.352 112.575 175.352 110.826C175.352 109.037 175.352 107.491 175.352 106.19V102.957C175.352 101.29 175.332 99.968 175.291 98.992C175.291 97.9753 175.25 96.857 175.169 95.637L170.899 95.088V92.77L181.086 88.927L182.062 89.537L182.489 94.234C185.62 90.696 189.077 88.927 192.859 88.927C195.502 88.927 197.536 89.8013 198.959 91.55C200.423 93.2987 201.155 96.064 201.155 99.846V106.19C201.155 107.573 201.155 109.138 201.155 110.887C201.155 112.636 201.175 114.262 201.216 115.767L204.937 116.499V119H189.87V116.499L193.774 115.706C193.815 114.201 193.835 112.595 193.835 110.887C193.835 109.138 193.835 107.573 193.835 106.19V100.395C193.835 97.9957 193.51 96.3487 192.859 95.454C192.208 94.5187 191.11 94.051 189.565 94.051C187.41 94.051 185.132 95.0473 182.733 97.04V106.19C182.733 107.532 182.733 109.077 182.733 110.826C182.733 112.575 182.753 114.222 182.794 115.767L186.393 116.499V119H171.326ZM208.495 119V116.499L212.521 115.706C212.562 114.201 212.582 112.575 212.582 110.826C212.582 109.037 212.582 107.491 212.582 106.19V103.323C212.582 101.656 212.562 100.273 212.521 99.175C212.521 98.0363 212.48 96.857 212.399 95.637L208.068 95.088V92.77L219.048 88.927L220.024 89.537L219.841 98.138V106.19C219.841 107.491 219.841 109.037 219.841 110.826C219.841 112.575 219.861 114.222 219.902 115.767L223.623 116.499V119H208.495ZM216.181 83.254C214.88 83.254 213.782 82.8473 212.887 82.034C211.992 81.2207 211.545 80.1837 211.545 78.923C211.545 77.6217 211.992 76.5643 212.887 75.751C213.782 74.9377 214.88 74.531 216.181 74.531C217.482 74.531 218.56 74.9377 219.414 75.751C220.309 76.5643 220.756 77.6217 220.756 78.923C220.756 80.1837 220.309 81.2207 219.414 82.034C218.56 82.8473 217.482 83.254 216.181 83.254ZM227.322 119V116.499L231.287 115.706C231.328 114.201 231.348 112.575 231.348 110.826C231.348 109.037 231.348 107.491 231.348 106.19V102.957C231.348 101.29 231.328 99.968 231.287 98.992C231.287 97.9753 231.246 96.857 231.165 95.637L226.895 95.088V92.77L237.082 88.927L238.058 89.537L238.485 94.234C241.616 90.696 245.073 88.927 248.855 88.927C251.498 88.927 253.532 89.8013 254.955 91.55C256.419 93.2987 257.151 96.064 257.151 99.846V106.19C257.151 107.573 257.151 109.138 257.151 110.887C257.151 112.636 257.171 114.262 257.212 115.767L260.933 116.499V119H245.866V116.499L249.77 115.706C249.811 114.201 249.831 112.595 249.831 110.887C249.831 109.138 249.831 107.573 249.831 106.19V100.395C249.831 97.9957 249.506 96.3487 248.855 95.454C248.204 94.5187 247.106 94.051 245.561 94.051C243.406 94.051 241.128 95.0473 238.729 97.04V106.19C238.729 107.532 238.729 109.077 238.729 110.826C238.729 112.575 238.749 114.222 238.79 115.767L242.389 116.499V119H227.322ZM277.24 106.068C278.948 106.068 280.249 105.397 281.144 104.055C282.039 102.713 282.486 100.924 282.486 98.687C282.486 96.5317 282.039 94.8237 281.144 93.563C280.29 92.2617 279.05 91.611 277.423 91.611C275.796 91.611 274.515 92.282 273.58 93.624C272.685 94.9253 272.238 96.674 272.238 98.87C272.238 101.066 272.665 102.815 273.519 104.116C274.373 105.417 275.613 106.068 277.24 106.068ZM269.554 124.673C269.554 126.544 270.245 127.906 271.628 128.76C273.011 129.614 274.983 130.041 277.545 130.041C280.758 130.041 283.177 129.512 284.804 128.455C286.471 127.398 287.305 126.117 287.305 124.612C287.305 123.473 286.898 122.497 286.085 121.684C285.312 120.871 283.95 120.464 281.998 120.464H275.227C273.722 120.464 272.38 120.342 271.201 120.098C270.103 121.562 269.554 123.087 269.554 124.673ZM277.362 108.752C275.532 108.752 273.844 108.528 272.299 108.081C271.526 109.138 271.14 110.257 271.14 111.436C271.14 112.209 271.384 112.819 271.872 113.266C272.401 113.713 273.336 113.937 274.678 113.937H282.303C286.288 113.937 289.135 114.689 290.843 116.194C292.551 117.699 293.405 119.732 293.405 122.294C293.405 124.205 292.775 125.995 291.514 127.662C290.294 129.329 288.464 130.671 286.024 131.688C283.625 132.705 280.615 133.213 276.996 133.213C273.865 133.213 271.343 132.888 269.432 132.237C267.561 131.586 266.199 130.712 265.345 129.614C264.532 128.516 264.125 127.296 264.125 125.954C264.125 124.653 264.552 123.453 265.406 122.355C266.26 121.298 267.663 120.301 269.615 119.366C268.354 118.919 267.419 118.288 266.809 117.475C266.199 116.621 265.894 115.645 265.894 114.547C265.894 113.368 266.24 112.209 266.931 111.07C267.663 109.891 268.781 108.61 270.286 107.227C267.073 105.6 265.467 102.815 265.467 98.87C265.467 95.8607 266.524 93.4613 268.639 91.672C270.754 89.842 273.661 88.927 277.362 88.927C281.063 88.927 283.95 89.781 286.024 91.489L292.917 88.866L293.832 89.476V93.746H287.915C288.769 95.1287 289.196 96.8367 289.196 98.87C289.196 101.839 288.159 104.238 286.085 106.068C284.011 107.857 281.103 108.752 277.362 108.752ZM164.284 192.854C162.901 192.854 161.742 192.386 160.807 191.451C159.871 190.475 159.404 189.336 159.404 188.035C159.404 186.652 159.871 185.473 160.807 184.497C161.742 183.521 162.901 183.033 164.284 183.033C165.666 183.033 166.825 183.521 167.761 184.497C168.696 185.473 169.164 186.652 169.164 188.035C169.164 189.336 168.696 190.475 167.761 191.451C166.825 192.386 165.666 192.854 164.284 192.854Z" fill="#1A0A03"/>
<path d="M11.322 192.854C9.45133 192.854 7.723 192.63 6.137 192.183C4.59167 191.776 3.04633 191.146 1.501 190.292L1.44 183.216H5.527L6.625 188.889C8.089 189.499 9.675 189.804 11.383 189.804C13.457 189.804 15.0023 189.438 16.019 188.706C17.0357 187.974 17.544 186.957 17.544 185.656C17.544 184.517 17.1373 183.602 16.324 182.911C15.5107 182.179 14.128 181.488 12.176 180.837L9.126 179.8C6.84867 179.068 5.039 177.99 3.697 176.567C2.39567 175.144 1.745 173.354 1.745 171.199C1.745 169.491 2.19233 167.946 3.087 166.563C3.98167 165.14 5.283 164.021 6.991 163.208C8.73967 162.354 10.8543 161.927 13.335 161.927C15.0837 161.927 16.6697 162.151 18.093 162.598C19.557 163.005 21.0007 163.615 22.424 164.428L22.119 170.833H18.093L16.995 165.709C15.8563 165.221 14.5957 164.977 13.213 164.977C11.5863 164.977 10.3257 165.323 9.431 166.014C8.53633 166.705 8.089 167.641 8.089 168.82C8.089 169.918 8.455 170.813 9.187 171.504C9.95967 172.155 11.383 172.826 13.457 173.517L15.897 174.249C18.8657 175.266 20.9803 176.526 22.241 178.031C23.5017 179.536 24.132 181.345 24.132 183.46C24.132 186.185 23.0137 188.442 20.777 190.231C18.581 191.98 15.4293 192.854 11.322 192.854ZM27.0395 192V189.499L31.0655 188.706C31.1062 187.201 31.1265 185.575 31.1265 183.826C31.1265 182.037 31.1265 180.491 31.1265 179.19V153.021L26.6735 152.411V150.032L37.5925 147.287L38.5075 147.836L38.2635 156.437V167.356C41.3948 163.737 44.8718 161.927 48.6945 161.927C51.3378 161.927 53.3915 162.801 54.8555 164.55C56.3195 166.299 57.0515 169.064 57.0515 172.846V179.19C57.0515 180.573 57.0515 182.138 57.0515 183.887C57.0515 185.636 57.0718 187.262 57.1125 188.767L60.8335 189.499V192H45.7665V189.499L49.6705 188.706C49.7112 187.201 49.7315 185.595 49.7315 183.887C49.7315 182.138 49.7315 180.573 49.7315 179.19V173.395C49.7315 170.996 49.4062 169.349 48.7555 168.454C48.1455 167.519 47.0678 167.051 45.5225 167.051C43.2452 167.051 40.8865 168.21 38.4465 170.528V179.19C38.4465 180.532 38.4465 182.077 38.4465 183.826C38.4465 185.575 38.4668 187.222 38.5075 188.767L42.1065 189.499V192H27.0395ZM79.4004 192.854C76.6351 192.854 74.134 192.244 71.8974 191.024C69.7014 189.804 67.9527 188.035 66.6514 185.717C65.35 183.399 64.6994 180.634 64.6994 177.421C64.6994 174.168 65.3704 171.382 66.7124 169.064C68.095 166.746 69.9047 164.977 72.1414 163.757C74.3781 162.537 76.7977 161.927 79.4004 161.927C82.0031 161.927 84.4227 162.537 86.6594 163.757C88.8961 164.977 90.7057 166.746 92.0884 169.064C93.4711 171.341 94.1624 174.127 94.1624 177.421C94.1624 180.674 93.4914 183.46 92.1494 185.778C90.8481 188.055 89.0791 189.804 86.8424 191.024C84.6464 192.244 82.1657 192.854 79.4004 192.854ZM79.4004 189.865C81.5964 189.865 83.2637 188.848 84.4024 186.815C85.5817 184.782 86.1714 181.671 86.1714 177.482C86.1714 169.105 83.9144 164.916 79.4004 164.916C74.9271 164.916 72.6904 169.105 72.6904 177.482C72.6904 181.671 73.2597 184.782 74.3984 186.815C75.537 188.848 77.2044 189.865 79.4004 189.865ZM113.289 164.855C112.313 164.855 111.337 165.18 110.361 165.831C109.425 166.441 108.612 167.458 107.921 168.881C107.27 170.304 106.863 172.236 106.701 174.676H115.058C116.522 174.676 117.498 174.371 117.986 173.761C118.474 173.151 118.718 172.297 118.718 171.199C118.718 169.328 118.189 167.803 117.132 166.624C116.074 165.445 114.793 164.855 113.289 164.855ZM113.289 192.854C110.442 192.854 107.941 192.244 105.786 191.024C103.63 189.804 101.943 188.055 100.723 185.778C99.5027 183.46 98.8927 180.715 98.8927 177.543C98.8927 174.29 99.5841 171.504 100.967 169.186C102.39 166.827 104.22 165.038 106.457 163.818C108.734 162.557 111.154 161.927 113.716 161.927C116.115 161.927 118.209 162.435 119.999 163.452C121.788 164.469 123.171 165.892 124.147 167.722C125.163 169.552 125.672 171.707 125.672 174.188C125.672 175.489 125.55 176.608 125.306 177.543H106.64C106.802 181.04 107.717 183.663 109.385 185.412C111.093 187.161 113.228 188.035 115.79 188.035C117.579 188.035 119.084 187.689 120.304 186.998C121.564 186.266 122.703 185.331 123.72 184.192L125.489 185.778C124.309 188.015 122.683 189.763 120.609 191.024C118.575 192.244 116.135 192.854 113.289 192.854ZM140.351 192.854C138.481 192.854 136.752 192.63 135.166 192.183C133.621 191.776 132.076 191.146 130.53 190.292L130.469 183.216H134.556L135.654 188.889C137.118 189.499 138.704 189.804 140.412 189.804C142.486 189.804 144.032 189.438 145.048 188.706C146.065 187.974 146.573 186.957 146.573 185.656C146.573 184.517 146.167 183.602 145.353 182.911C144.54 182.179 143.157 181.488 141.205 180.837L138.155 179.8C135.878 179.068 134.068 177.99 132.726 176.567C131.425 175.144 130.774 173.354 130.774 171.199C130.774 169.491 131.222 167.946 132.116 166.563C133.011 165.14 134.312 164.021 136.02 163.208C137.769 162.354 139.884 161.927 142.364 161.927C144.113 161.927 145.699 162.151 147.122 162.598C148.586 163.005 150.03 163.615 151.453 164.428L151.148 170.833H147.122L146.024 165.709C144.886 165.221 143.625 164.977 142.242 164.977C140.616 164.977 139.355 165.323 138.46 166.014C137.566 166.705 137.118 167.641 137.118 168.82C137.118 169.918 137.484 170.813 138.216 171.504C138.989 172.155 140.412 172.826 142.486 173.517L144.926 174.249C147.895 175.266 150.01 176.526 151.27 178.031C152.531 179.536 153.161 181.345 153.161 183.46C153.161 186.185 152.043 188.442 149.806 190.231C147.61 191.98 144.459 192.854 140.351 192.854Z" fill="#EE5514"/>
</svg>
